#N canvas 25 70 640 480 10;
#X obj 306 634 ctlin;
#X obj 60 634 notein;
#X obj 75 514 midiparse;
#X obj 20 514 print;
#X obj 20 474 midiin;
#X listbox 75 561 9 0 0 0 - - - 0;
#X listbox 108 586 9 0 0 0 - - - 0;
#X text 130 560 MIDI note messages;
#X text 171 584 MIDI control change (CC) messages;
#X floatatom 28 688 5 0 0 0 - - - 12;
#X floatatom 71 688 5 0 0 0 - - - 12;
#X floatatom 140 688 5 0 0 0 - - - 12;
#X floatatom 240 688 5 0 0 0 - - - 12;
#X floatatom 317 688 5 0 0 0 - - - 12;
#X floatatom 404 688 5 0 0 0 - - - 12;
#X text 28 714 note;
#X text 71 714 velocity;
#X text 142 714 channel;
#X text 240 714 CC value;
#X text 317 715 CC number;
#X text 404 714 channel;
#X text 115 634 recebe notas MIDI;
#X text 362 634 recebe CC;
#X obj 23 18 pic 0 menu_button.png empty empty 0 0;
#X text 210 513 traduz MIDI (do formato serial para informação legível);
#X text 81 476 recebe informação de dispositivos MIDI;
#X obj 28 98 pic 0 midi_settings.png empty empty 0 0;
#X text 81 27 1) Ir ao menu (canto superior esquerdo) e seleccionar 'Settings', f 65;
#X text 34 75 2) No separador 'MIDI' seleccionar o dispositivo de entrada desejado (ex: MIDI Inputs > MidiLink Enabled), f 106;
#X connect 0 0 12 0;
#X connect 0 1 13 0;
#X connect 0 2 14 0;
#X connect 1 0 9 0;
#X connect 1 1 10 0;
#X connect 1 2 11 0;
#X connect 2 0 5 0;
#X connect 2 2 6 0;
#X connect 4 0 2 0;
#X connect 4 0 3 0;
