#N canvas 689 306 399 312 10;
#X text 65 260 enviar mensagens de controlo CC;
#X text 65 230 receber mensagens de controlo CC (faders;
#X text 65 167 enviar notas MIDI;
#X text 83 198 criar uma nota (com note-on e note-off);
#X text 65 140 receber notas MIDI;
#X text 141 78 interpretar mensagens MIDI (raw);
#X text 141 109 formatar mensagens para MIDI (raw);
#X text 69 50 enviar MIDI (raw);
#X text 62 20 receber MIDI (raw);
#X obj 17 260 ctlout;
#X obj 17 230 ctlin;
#X obj 13 167 noteout;
#X obj 11 199 makenote;
#X obj 17 140 notein;
#X obj 16 78 midiparse;
#X obj 16 109 midiformat;
#X obj 17 50 midiout;
#X obj 17 20 midiin;
