#N canvas 680 45 680 673 10;
#X obj 83 700 send trigger;
#X text 178 209 suaviza o sinal;
#X text 79 148 bipolar (-1 a 1) para unipolar (de 0 a 1);
#X text 83 55 entrada áudio;
#X text 226 55 ganho;
#X obj 30 700 bng 39 250 50 0 empty empty empty 17 7 0 10 #fcfcfc #000000 #000000;
#X obj 30 655 sel 1;
#X obj 178 10 loadmess 1;
#X floatatom 178 55 8 0 0 0 - - - 16;
#X obj 30 105 *~ 1;
#X obj 30 590 thresh~ 0 1;
#X obj 30 149 abs~;
#X obj 30 210 rampsmooth~ 100 100;
#X obj 30 179 average~ 50;
#X text 47 14 Audio on/off;
#X obj 30 15 tgl 15 0 empty empty empty 17 7 0 10 #fcfcfc #000000 #000000 0 1;
#X obj 30 60 adc~ 1;
#X floatatom 132 541 5 0 0 0 - - - 12;
#X floatatom 237 539 9 0 0 0 - - - 12;
#X floatatom 100 350 25 0 0 0 - - - 24;
#X text 168 539 mínimo;
#X text 295 538 máximo;
#X obj 399 149 meter~;
#X text 459 148 (meter~);
#X obj 105 403 vsl 17 128 0 1 0 0 empty empty empty 0 -9 0 10 #e4e4e4 #4d4d4d #373737 0 1;
#X obj 100 274 peakamp~ 50;
#X obj 140 403 vsl 17 128 0 1 0 0 empty empty empty 0 -9 0 10 #e4e4e4 #4d4d4d #373737 0 1;
#X obj 242 403 vsl 17 128 0 1 0 0 empty empty empty 0 -9 0 10 #e4e4e4 #4d4d4d #373737 0 1;
#X obj 30 622 peakamp~ 50;
#X text 124 179 calcula a média;
#X text 194 273 diz-nos o pico de amplitude;
#X connect 6 0 0 0;
#X connect 6 0 5 0;
#X connect 7 0 8 0;
#X connect 8 0 9 1;
#X connect 9 0 11 0;
#X connect 9 0 22 0;
#X connect 10 0 28 0;
#X connect 11 0 13 0;
#X connect 12 0 10 0;
#X connect 12 0 25 0;
#X connect 13 0 12 0;
#X connect 15 0 16 0;
#X connect 16 0 9 0;
#X connect 17 0 10 1;
#X connect 18 0 10 2;
#X connect 19 0 24 0;
#X connect 25 0 19 0;
#X connect 26 0 17 0;
#X connect 27 0 18 0;
#X connect 28 0 6 0;
