#N canvas 4 45 1315 540 10;
#X text 1903 94 abrir o ficheiro chamado "drumloop.aif";
#X msg 1776 96 open drumloop.aif;
#X obj 1766 444 dac~ 1 2;
#X msg 1827 207 0;
#X msg 1809 178 1;
#X msg 1796 136 open;
#X text 1836 136 escolher um ficheiro;
#X text 1826 176 tocar o ficheiro do princípio ao fim;
#X text 1846 206 parar de tocar;
#X text 1838 290 canal 2 (direito), f 10;
#X obj 1370 375 *~ 0.2;
#X obj 1370 345 cycle~ 25;
#X text 1360 321 Visualização de sinais;
#X text 1402 193 uma multiplicação serve para alterarmos o volume do sinal, f 34;
#X obj 1345 244 dac~ 1 2;
#X obj 1345 74 loadmess 220;
#X text 1766 56 Amostras áudio (básico);
#X text 1335 44 Osciladores (básico);
#X obj 1345 194 *~ 0.2;
#X text 1430 133 oscilador de onda sinusoidal;
#X floatatom 1345 104 8 0 0 0 - - - 0;
#X obj 1345 134 cycle~ 220;
#X text 838 164 Da mesma forma é possível receber sinais através da nossa interface áudio. ADC significa 'Analog-to-Digital Converter'.;
#X obj 798 164 adc~;
#X text 838 84 DAC significa 'Digital-to-Analog Converter' o que significa que este objecto é responsável pela conversão de sinais áudio no domínio digital para o domínio analógico à saída da interface áudio (ou placa de som);
#X obj 798 84 dac~;
#X text 1829 6 Tiago Ângelo 2018 www.tiagoangelo.net;
#X obj 17 332 pic 0 audio_settings.png empty empty 0 0;
#X msg 17 295 open pics/audio_settings.png;
#X obj 17 263 loadbang;
#X obj 17 206 pic 0 menu_button.png empty empty 0 0;
#X obj 17 54 loadbang;
#X msg 17 86 open pics/menu_button.png;
#X text 73 179 Na barra de menu em cima (Main Menu);
#X text 61 212 <<< pressionar este botão e depois pressionar "Settings";
#X text 10 10 INTRODUÇÃO AO PROCESSAMENTO DE SINAIS DIGITAIS;
#X text 73 149 Como configurar a saída/entrada de som?;
#X text 798 39 Conexão à placa de som;
#X text 798 235 Nota: todos os objectos áudio terminam com um '~' A cor dos inlets/outlets é diferente (laranja em vez de azul) e o aspecto do cabo é diferente;
#X obj 1370 421 meter~;
#X text 1447 73 (load message) : carrega o valor "220" quando o patch é iniciado, f 36;
#X text 1691 286 canal 1 (esquerdo), f 13;
#X obj 1781 287 meter2~;
#X obj 1776 246 play.file~ 2;
#X text 1311 420 meter~;
#X text 1831 401 meter2~;
#X obj 1421 421 oscope~ 130 130 256 3 128 -1 1 0 0 0 0 77 77 77 228 228 228 183 183 183 0 empty;
#X text 1488 396 oscope~;
#X text 1499 588 spectrograph~;
#X obj 1370 574 noise~;
#X obj 1370 613 spectrograph~;
#N canvas 25 70 511 766 controlo_amplitude&frequencia 0;
#X text 541 77 frequência em Hertz (1 Hertz = 1 ciclo por segundo);
#X floatatom 481 77 8 0 0 0 - - - 0;
#X obj 481 122 pack 0 25;
#X obj 481 152 line~;
#X obj 490 385 dac~ 1 2;
#X obj 481 182 cycle~ 880;
#X text 481 32 Mudar a frequência sem cliques;
#X floatatom 286 97 8 0 0 0 - - - 0;
#X obj 255 202 *~ 0;
#X obj 286 127 pack 0 25;
#X obj 286 157 line~;
#X obj 255 52 cycle~ 1720;
#X obj 234 392 dac~ 1 2;
#X text 140 73 ... OU ...;
#X obj 6 344 dac~ 1 2;
#X obj 30 52 cycle~ 880;
#X text 15 15 Mudar a amplitude sem cliques;
#X obj 31 87 gain~ 1 0 20 0 0;
#A saved;
#X obj 26 198 meter~;
#X text 58 112 gain~;
#X text 57 253 meter~;
#X obj 254 231 meter~;
#X text 286 272 meter~;
#X text 193 96 >>>>>>>>>;
#X obj 490 234 gain~ 1 0 20 0 0;
#A saved;
#X obj 517 217 meter~;
#X connect 1 0 2 0;
#X connect 2 0 3 0;
#X connect 3 0 5 0;
#X connect 5 0 24 0;
#X connect 7 0 9 0;
#X connect 8 0 21 0;
#X connect 9 0 10 0;
#X connect 10 0 8 1;
#X connect 11 0 8 0;
#X connect 15 0 17 0;
#X connect 17 0 18 0;
#X connect 18 0 14 0;
#X connect 18 0 14 1;
#X connect 21 0 12 0;
#X connect 21 0 12 1;
#X connect 24 0 25 0;
#X connect 25 0 4 0;
#X connect 25 0 4 1;
#X restore 1408 156 pd controlo_amplitude&frequencia;
#X connect 1 0 43 0;
#X connect 3 0 43 0;
#X connect 4 0 43 0;
#X connect 5 0 43 0;
#X connect 10 0 46 0;
#X connect 10 0 39 0;
#X connect 11 0 10 0;
#X connect 15 0 20 0;
#X connect 18 0 14 0;
#X connect 18 0 14 1;
#X connect 20 0 21 0;
#X connect 21 0 18 0;
#X connect 28 0 27 0;
#X connect 29 0 28 0;
#X connect 31 0 32 0;
#X connect 32 0 30 0;
#X connect 42 0 2 0;
#X connect 42 1 2 1;
#X connect 43 0 42 0;
#X connect 43 1 42 1;
#X connect 49 0 50 0;
