#N canvas 0 45 479 346 10;
#X text 159 134 manda um bang se um determinado valor for recebido;
#X text 55 44 objecto para ler as teclas do computador;
#X text 15 15 Teclado;
#X msg 150 240 65;
#X msg 105 240 64;
#X msg 60 240 62;
#X msg 12 240 60;
#X obj 105 180 bng 15 250 50 0 empty empty empty 17 7 0 10 #fcfcfc #000000 #000000;
#X obj 75 180 bng 15 250 50 0 empty empty empty 17 7 0 10 #fcfcfc #000000 #000000;
#X obj 45 180 bng 15 250 50 0 empty empty empty 17 7 0 10 #fcfcfc #000000 #000000;
#X obj 19 180 bng 15 250 50 0 empty empty empty 17 7 0 10 #fcfcfc #000000 #000000;
#X obj 15 135 select 97 115 100 102;
#X obj 15 45 key;
#X obj 15 333 keyboard 16 80 4 2 0 0 empty empty;
#X obj 15 297 makenote 127 500, f 20;
#X floatatom 45 81 5 0 0 0 - - - 12;
#X text 195 239 envia as notas MIDI;
#X text 144 296 gera uma mensagem de note-on seguida de note-off;
#X text 80 80 código ASCII relativo à tecla pressionada;
#X connect 3 0 14 0;
#X connect 4 0 14 0;
#X connect 5 0 14 0;
#X connect 6 0 14 0;
#X connect 7 0 3 0;
#X connect 8 0 4 0;
#X connect 9 0 5 0;
#X connect 10 0 6 0;
#X connect 11 0 10 0;
#X connect 11 1 9 0;
#X connect 11 2 8 0;
#X connect 11 3 7 0;
#X connect 12 0 11 0;
#X connect 12 0 15 0;
#X connect 14 0 13 0;
#X connect 14 1 13 1;
