#N canvas 827 239 527 327 12;
#X text 233 11 ATALHOS;
#X text 233 82 CMD + 1 (OSX);
#X text 233 118 CTRL + 1 (WIN);
#X obj 165 52 cycle~;
#X msg 175 191 hello;
#X text 233 51 criar 'objecto';
#X text 243 191 criar 'mensagem';
#X floatatom 181 318 5 0 0 0 - - - 12;
#X text 243 315 criar 'caixa numérica';
#X text 243 222 CMD + 2 (OSX);
#X text 243 258 CTRL + 2 (WIN);
#X text 243 345 CMD + 3 (OSX);
#X text 243 381 CTRL + 3 (WIN);
#X listbox 153 431 9 0 0 0 - - - 0;
#X text 243 428 criar 'lista';
#X text 243 464 CMD + 4 (OSX);
#X text 243 500 CTRL + 4 (WIN);
#X text 152 570 comment;
#X text 243 572 criar 'comentário';
#X text 243 608 CMD + 5 (OSX);
#X text 243 644 CTRL + 5 (WIN);
